<?xml version="1.0" encoding="UTF-8"?>
<svg xmlns="http://www.w3.org/2000/svg" viewBox="0 0 100 100" role="img" aria-labelledby="title desc">
  <title id="title">Cell dish</title>
  <desc id="desc">Top-view cell-culture dish with lid rim, pink medium, adherent cell islands, and a liquid meniscus. Biological basis: Adherent cultured cells spread across the treated plastic surface beneath a shallow layer of buffered culture medium.</desc>
  <metadata>{"id":"dish","label":"Cell dish","description":"Top-view cell-culture dish with lid rim, pink medium, adherent cell islands, and a liquid meniscus.","biologicalBasis":"Adherent cultured cells spread across the treated plastic surface beneath a shallow layer of buffered culture medium."}</metadata>
  <ellipse cx="50" cy="52" rx="41" ry="29" fill="#F5C3C1" fill-opacity=".75" stroke="#6F9EAA" stroke-width="2.5"/><ellipse cx="50" cy="45" rx="41" ry="27" fill="#fff" fill-opacity=".25" stroke="#8AB2BF" stroke-width="1.5"/><circle cx="31" cy="48" r="2" fill="#D77A79" /><circle cx="41" cy="42" r="2" fill="#D77A79" /><circle cx="51" cy="55" r="2" fill="#D77A79" /><circle cx="61" cy="44" r="2" fill="#D77A79" /><circle cx="70" cy="52" r="2" fill="#D77A79" /><path d="M25 43q3-4 6 0q-3 4-6 0z" fill="#C96D73" stroke="#9B4F56" stroke-width=".6"/><path d="M35 50q3-4 6 0q-3 4-6 0z" fill="#C96D73" stroke="#9B4F56" stroke-width=".6"/><path d="M45 40q3-4 6 0q-3 4-6 0z" fill="#C96D73" stroke="#9B4F56" stroke-width=".6"/><path d="M55 54q3-4 6 0q-3 4-6 0z" fill="#C96D73" stroke="#9B4F56" stroke-width=".6"/><path d="M65 45q3-4 6 0q-3 4-6 0z" fill="#C96D73" stroke="#9B4F56" stroke-width=".6"/>
</svg>
