<?xml version="1.0" encoding="UTF-8"?>
<svg xmlns="http://www.w3.org/2000/svg" viewBox="0 0 100 100" role="img" aria-labelledby="title desc">
  <title id="title">Cell dish</title>
  <desc id="desc">Top-view cell-culture dish with lid rim, pink medium, adherent cell islands, and a liquid meniscus. Biological basis: Adherent cultured cells spread across the treated plastic surface beneath a shallow layer of buffered culture medium.</desc>
  <metadata>{"id":"dish","label":"Cell dish","description":"Top-view cell-culture dish with lid rim, pink medium, adherent cell islands, and a liquid meniscus.","biologicalBasis":"Adherent cultured cells spread across the treated plastic surface beneath a shallow layer of buffered culture medium."}</metadata>
  <ellipse cx="50" cy="56" rx="43" ry="28" fill="#C9DEE4" fill-opacity=".58" stroke="#618895" stroke-width="2"/><ellipse cx="50" cy="49" rx="43" ry="28" fill="#F3B8B5" fill-opacity=".64" stroke="#7AA0AB" stroke-width="1.7"/><ellipse cx="50" cy="49" rx="37" ry="22" fill="#F7C8C5" fill-opacity=".74" stroke="#D68D8B" stroke-width=".8"/><path d="M21 45q3-5 6-2 4-3 6 2-3 5-7 3-4 3-5-3z" fill="#E29191" stroke="#A85B64" stroke-width=".7"/><ellipse cx="27" cy="45" rx="1.7" ry="2.1" fill="#78566F"/><path d="M31 57q3-5 6-2 4-3 6 2-3 5-7 3-4 3-5-3z" fill="#D77C82" stroke="#A85B64" stroke-width=".7"/><ellipse cx="37" cy="57" rx="1.7" ry="2.1" fill="#78566F"/><path d="M42 41q3-5 6-2 4-3 6 2-3 5-7 3-4 3-5-3z" fill="#E29191" stroke="#A85B64" stroke-width=".7"/><ellipse cx="48" cy="41" rx="1.7" ry="2.1" fill="#78566F"/><path d="M53 55q3-5 6-2 4-3 6 2-3 5-7 3-4 3-5-3z" fill="#D77C82" stroke="#A85B64" stroke-width=".7"/><ellipse cx="59" cy="55" rx="1.7" ry="2.1" fill="#78566F"/><path d="M65 44q3-5 6-2 4-3 6 2-3 5-7 3-4 3-5-3z" fill="#E29191" stroke="#A85B64" stroke-width=".7"/><ellipse cx="71" cy="44" rx="1.7" ry="2.1" fill="#78566F"/><path d="M48 65q3-5 6-2 4-3 6 2-3 5-7 3-4 3-5-3z" fill="#D77C82" stroke="#A85B64" stroke-width=".7"/><ellipse cx="54" cy="65" rx="1.7" ry="2.1" fill="#78566F"/><path d="M71 57q3-5 6-2 4-3 6 2-3 5-7 3-4 3-5-3z" fill="#E29191" stroke="#A85B64" stroke-width=".7"/><ellipse cx="77" cy="57" rx="1.7" ry="2.1" fill="#78566F"/><path d="M15 39q35-16 70 0" fill="none" stroke="#EAF5F6" stroke-width="1"/>
</svg>
