<?xml version="1.0" encoding="UTF-8"?>
<svg xmlns="http://www.w3.org/2000/svg" viewBox="0 0 100 100" role="img" aria-labelledby="title desc">
  <title id="title">Golgi</title>
  <desc id="desc">Polarized Golgi stack with cis and trans faces, flattened cisternae, and incoming and budding transport vesicles. Biological basis: Golgi cisternae modify and sort biosynthetic cargo as it moves from the cis entry face toward the trans-Golgi network.</desc>
  <metadata>{"id":"golgi","label":"Golgi","description":"Polarized Golgi stack with cis and trans faces, flattened cisternae, and incoming and budding transport vesicles.","biologicalBasis":"Golgi cisternae modify and sort biosynthetic cargo as it moves from the cis entry face toward the trans-Golgi network."}</metadata>
  <path d="M20 31Q50 17 80 31" fill="none" stroke="#EFA08D" stroke-width="7" stroke-linecap="round"/><path d="M20 40Q50 25 80 40" fill="none" stroke="#E88B80" stroke-width="7" stroke-linecap="round"/><path d="M20 49Q50 33 80 49" fill="none" stroke="#DB7772" stroke-width="7" stroke-linecap="round"/><path d="M20 58Q50 41 80 58" fill="none" stroke="#C9686A" stroke-width="7" stroke-linecap="round"/><path d="M20 67Q50 49 80 67" fill="none" stroke="#B75B65" stroke-width="7" stroke-linecap="round"/><circle cx="17" cy="26" r="4" fill="#E99A89" stroke="#B75B65" stroke-width="1.2"/><circle cx="83" cy="37" r="4" fill="#E99A89" stroke="#B75B65" stroke-width="1.2"/><circle cx="22" cy="77" r="4" fill="#E99A89" stroke="#B75B65" stroke-width="1.2"/><circle cx="78" cy="72" r="4" fill="#E99A89" stroke="#B75B65" stroke-width="1.2"/><circle cx="88" cy="55" r="4" fill="#E99A89" stroke="#B75B65" stroke-width="1.2"/><path d="M16 23q7-5 14 0M73 77q7 5 13 0" fill="none" stroke="#B75B65" stroke-width="1.3"/><circle cx="13" cy="20" r="3" fill="#DA7C78" /><circle cx="87" cy="78" r="3" fill="#DA7C78" />
</svg>
