<?xml version="1.0" encoding="UTF-8"?>
<svg xmlns="http://www.w3.org/2000/svg" viewBox="0 0 100 100" role="img" aria-labelledby="title desc">
  <title id="title">M cell</title>
  <desc id="desc">Follicle-associated epithelial M cell with flat sparse-microfold apex, captured antigen, transcytotic vesicles, and a basolateral lymphocyte pocket. Biological basis: M cells sample luminal particles and deliver them across the epithelium to lymphocytes and mononuclear phagocytes housed in a basolateral pocket.</desc>
  <metadata>{"id":"mcell","label":"M cell","description":"Follicle-associated epithelial M cell with flat sparse-microfold apex, captured antigen, transcytotic vesicles, and a basolateral lymphocyte pocket.","biologicalBasis":"M cells sample luminal particles and deliver them across the epithelium to lymphocytes and mononuclear phagocytes housed in a basolateral pocket."}</metadata>
  <defs><linearGradient id="bodymcell" x1="0" y1="0" x2="1" y2="1"><stop offset="0" stop-color="#E4D7C9"/><stop offset="1" stop-color="#B59B82"/></linearGradient></defs><path d="M20 18q0-7 8-7h44q8 0 8 7l-5 68q-1 7-8 7H33q-7 0-8-7z" fill="url(#bodymcell)" stroke="#B59B82" stroke-width="2.2"/><path d="M23 18q27 7 54 0" fill="none" stroke="#836B5A" stroke-width="2.5"/><circle cx="31" cy="8" r="2" fill="#9B6C4E" /><circle cx="43" cy="6" r="2" fill="#9B6C4E" /><circle cx="58" cy="8" r="2" fill="#9B6C4E" /><circle cx="70" cy="5" r="2" fill="#9B6C4E" /><path d="M50 14v18" stroke="#7D6658" stroke-width="1.5" stroke-dasharray="2 2"/><circle cx="50" cy="30" r="3" fill="#D4B56D" stroke="#8A6B3D" stroke-width="1"/><circle cx="50" cy="39" r="3" fill="#D4B56D" stroke="#8A6B3D" stroke-width="1"/><circle cx="50" cy="48" r="3" fill="#D4B56D" stroke="#8A6B3D" stroke-width="1"/><path d="M31 55q19-17 38 0v28q-7-12-18-11-12 0-20 11z" fill="#F2E8DF" stroke="#8B715E" stroke-width="1.6"/><circle cx="48" cy="70" r="9" fill="#8D68A4" stroke="#604675" stroke-width="1.5"/><path d="M43 67l10 6M53 67l-10 6" stroke="#6A4B82" stroke-width="1"/><path d="M63 61c7 0 10 5 10 10s-4 8-8 9" fill="#B78468" stroke="#755242" stroke-width="1.3"/>
</svg>
