<?xml version="1.0" encoding="UTF-8"?>
<svg xmlns="http://www.w3.org/2000/svg" viewBox="0 0 100 100" role="img" aria-labelledby="title desc">
  <title id="title">PCR tubes</title>
  <desc id="desc">Eight-tube PCR strip with hinged caps, tapered reaction chambers, sample volumes, and connected top rail. Biological basis: Thin-walled PCR tubes promote rapid thermal transfer and are commonly supplied in connected strips with evaporation-limiting caps.</desc>
  <metadata>{"id":"pcrtube","label":"PCR tubes","description":"Eight-tube PCR strip with hinged caps, tapered reaction chambers, sample volumes, and connected top rail.","biologicalBasis":"Thin-walled PCR tubes promote rapid thermal transfer and are commonly supplied in connected strips with evaporation-limiting caps."}</metadata>
  <path d="M7 30h10l-1 37q-4 9-8 0z" fill="#DCEEF2" stroke="#648C9C" stroke-width="1.3"/><rect x="6" y="24" width="12" height="7" rx="2" fill="#E68B83"/><path d="M18 30h10l-1 37q-4 9-8 0z" fill="#DCEEF2" stroke="#648C9C" stroke-width="1.3"/><rect x="17" y="24" width="12" height="7" rx="2" fill="#78A9C5"/><path d="M29 30h10l-1 37q-4 9-8 0z" fill="#DCEEF2" stroke="#648C9C" stroke-width="1.3"/><rect x="28" y="24" width="12" height="7" rx="2" fill="#E68B83"/><path d="M40 30h10l-1 37q-4 9-8 0z" fill="#DCEEF2" stroke="#648C9C" stroke-width="1.3"/><rect x="39" y="24" width="12" height="7" rx="2" fill="#78A9C5"/><path d="M51 30h10l-1 37q-4 9-8 0z" fill="#DCEEF2" stroke="#648C9C" stroke-width="1.3"/><rect x="50" y="24" width="12" height="7" rx="2" fill="#E68B83"/><path d="M62 30h10l-1 37q-4 9-8 0z" fill="#DCEEF2" stroke="#648C9C" stroke-width="1.3"/><rect x="61" y="24" width="12" height="7" rx="2" fill="#78A9C5"/><path d="M73 30h10l-1 37q-4 9-8 0z" fill="#DCEEF2" stroke="#648C9C" stroke-width="1.3"/><rect x="72" y="24" width="12" height="7" rx="2" fill="#E68B83"/><path d="M84 30h10l-1 37q-4 9-8 0z" fill="#DCEEF2" stroke="#648C9C" stroke-width="1.3"/><rect x="83" y="24" width="12" height="7" rx="2" fill="#78A9C5"/><path d="M6 25h89" stroke="#53616B" stroke-width="2"/>
</svg>
