<?xml version="1.0" encoding="UTF-8"?>
<svg xmlns="http://www.w3.org/2000/svg" viewBox="0 0 100 100" role="img" aria-labelledby="title desc">
  <title id="title">Petri dish</title>
  <desc id="desc">Top-view petri dish with lid rim, agar surface, colonies of different sizes, and a streak path. Biological basis: Microbial colonies expand clonally on a nutrient-gel surface and differ in size, opacity, margin, and pigmentation.</desc>
  <metadata>{"id":"petri","label":"Petri dish","description":"Top-view petri dish with lid rim, agar surface, colonies of different sizes, and a streak path.","biologicalBasis":"Microbial colonies expand clonally on a nutrient-gel surface and differ in size, opacity, margin, and pigmentation."}</metadata>
  <ellipse cx="50" cy="56" rx="43" ry="28" fill="#C8DDE2" fill-opacity=".55" stroke="#618895" stroke-width="2"/><ellipse cx="50" cy="49" rx="43" ry="28" fill="#F0E5BD" fill-opacity=".72" stroke="#7AA0AB" stroke-width="1.7"/><ellipse cx="50" cy="49" rx="37" ry="22" fill="#F4E9C8" stroke="#D0B66B" stroke-width=".9"/><path d="M21 56q9-25 35-24 20 0 28 15M25 61q13-18 37-17M33 65q12-11 34-9" fill="none" stroke="#C8A34F" stroke-width="1" stroke-dasharray="2.2 2"/><circle cx="27" cy="43" r="3.2" fill="#D7A64F" stroke="#9B6B3E" stroke-width=".6"/><circle cx="26" cy="42" r="0.8960000000000001" fill="#F2D894"/><circle cx="39" cy="54" r="2.2" fill="#C8874D" stroke="#9B6B3E" stroke-width=".6"/><circle cx="38" cy="53" r="0.6160000000000001" fill="#F2D894"/><circle cx="55" cy="37" r="3.8" fill="#E0B963" stroke="#9B6B3E" stroke-width=".6"/><circle cx="54" cy="36" r="1.064" fill="#F2D894"/><circle cx="68" cy="51" r="2.7" fill="#B9854E" stroke="#9B6B3E" stroke-width=".6"/><circle cx="67" cy="50" r="0.7560000000000001" fill="#F2D894"/><circle cx="59" cy="61" r="1.8" fill="#D79A56" stroke="#9B6B3E" stroke-width=".6"/><circle cx="58" cy="60" r="0.5040000000000001" fill="#F2D894"/><circle cx="75" cy="42" r="1.5" fill="#B77445" stroke="#9B6B3E" stroke-width=".6"/><circle cx="74" cy="41" r="0.5" fill="#F2D894"/>
</svg>
