<?xml version="1.0" encoding="UTF-8"?>
<svg xmlns="http://www.w3.org/2000/svg" viewBox="0 0 100 100" role="img" aria-labelledby="title desc">
  <title id="title">RNA</title>
  <desc id="desc">Single-stranded RNA with ribose-phosphate backbone, exposed bases, stem-loop hairpin, and 5-prime/3-prime direction. Biological basis: RNA is usually single-stranded but forms intramolecular base-paired stems and loops that support recognition and catalysis.</desc>
  <metadata>{"id":"rna","label":"RNA","description":"Single-stranded RNA with ribose-phosphate backbone, exposed bases, stem-loop hairpin, and 5-prime/3-prime direction.","biologicalBasis":"RNA is usually single-stranded but forms intramolecular base-paired stems and loops that support recognition and catalysis."}</metadata>
  <path d="M14 73c10-5 14-19 20-32 5-11 15-17 24-11 14 9-3 26-12 16-7-8 3-19 15-15 14 5 12 25 23 33" fill="none" stroke="#63A47E" stroke-width="5" stroke-linecap="round"/><circle cx="18" cy="69" r="2.5" fill="#E39A62" /><circle cx="27" cy="55" r="2.5" fill="#E39A62" /><circle cx="35" cy="38" r="2.5" fill="#E39A62" /><circle cx="49" cy="28" r="2.5" fill="#E39A62" /><circle cx="61" cy="33" r="2.5" fill="#E39A62" /><circle cx="53" cy="47" r="2.5" fill="#E39A62" /><circle cx="71" cy="49" r="2.5" fill="#E39A62" /><circle cx="82" cy="64" r="2.5" fill="#E39A62" /><text x="10" y="79" font-size="7" font-family="sans-serif" fill="#4B5963">5′</text><text x="84" y="70" font-size="7" font-family="sans-serif" fill="#4B5963">3′</text>
</svg>
